<svg width="134" height="40" viewBox="0 0 134 40" fill="none" xmlns="http://www.w3.org/2000/svg">
<path fill-rule="evenodd" clip-rule="evenodd" d="M129.035 40H4.96479C2.22849 40 0 37.7456 0 35V5C0 2.24439 2.22849 0 4.96479 0H129.035C131.769 0 134 2.24439 134 5V35C134 37.7456 131.769 40 129.035 40Z" fill="black" fill-opacity="0.15"/>
<path d="M70.5917 13.232C69.6968 13.232 68.9425 12.9153 68.3459 12.2918C67.7543 11.6858 67.424 10.8504 67.4388 9.99755C67.4388 9.08732 67.7444 8.31675 68.3459 7.70578C68.94 7.08233 69.6944 6.76562 70.5892 6.76562C71.4742 6.76562 72.2285 7.08233 72.8349 7.70578C73.4364 8.3367 73.7421 9.10727 73.7421 9.99755C73.7323 10.9103 73.4266 11.6808 72.8349 12.2893C72.2409 12.9177 71.4865 13.232 70.5917 13.232ZM43.9657 13.232C43.0906 13.232 42.3313 12.9202 41.7101 12.3043C41.0938 11.6908 40.7808 10.9153 40.7808 10C40.7808 9.08483 41.0938 8.30927 41.7101 7.6958C42.319 7.07984 43.0783 6.76812 43.9657 6.76812C44.3996 6.76812 44.8211 6.8554 45.2254 7.03246C45.6223 7.20453 45.9452 7.43894 46.1843 7.72572L46.2435 7.79804L45.5755 8.46139L45.5064 8.37909C45.1293 7.92523 44.6239 7.70328 43.9559 7.70328C43.3593 7.70328 42.8392 7.91775 42.4102 8.34169C41.9788 8.76812 41.7594 9.32672 41.7594 10.0025C41.7594 10.6783 41.9788 11.2369 42.4102 11.6634C42.8392 12.0873 43.3593 12.3018 43.9559 12.3018C44.5919 12.3018 45.1268 12.0873 45.5434 11.6634C45.7899 11.414 45.9428 11.0649 45.997 10.6235H43.8548V9.69081H46.9165L46.9288 9.7756C46.951 9.93271 46.9732 10.0948 46.9732 10.2444C46.9732 11.1048 46.7168 11.8005 46.209 12.3143C45.6322 12.9227 44.8778 13.232 43.9657 13.232ZM79.3676 13.0998H78.4234L75.5318 8.41899L75.5565 9.26188V13.0973H74.6123V6.90029H75.6896L75.7192 6.94767L78.4382 11.3566L78.4136 10.5162V6.90029H79.3676V13.0998ZM63.497 13.0998H62.5405V7.83296H60.8815V6.90029H65.1536V7.83296H63.4945V13.0998H63.497ZM60.1025 13.0998H59.1485V6.90029H60.1025V13.0998ZM54.7408 13.0998H53.7868V7.83296H52.1278V6.90029H56.3999V7.83296H54.7408V13.0998ZM51.5238 13.0898H47.8656V6.90029H51.5238V7.83296H48.822V9.53371H51.2601V10.4564H48.822V12.1571H51.5238V13.0898ZM69.046 11.6509C69.4725 12.0823 69.9902 12.2993 70.5917 12.2993C71.2104 12.2993 71.7158 12.0873 72.1373 11.6509C72.5564 11.227 72.7684 10.6709 72.7684 10C72.7684 9.32922 72.5564 8.77061 72.1398 8.34917C71.7133 7.91774 71.1932 7.70079 70.5941 7.70079C69.9754 7.70079 69.47 7.91276 69.051 8.34917C68.6319 8.77311 68.4199 9.32922 68.4199 10C68.4199 10.6709 68.6294 11.2295 69.046 11.6509Z" fill="white"/>
<path fill-rule="evenodd" clip-rule="evenodd" d="M67.3499 21.7559C65.0203 21.7559 63.132 23.5439 63.132 26.0103C63.132 28.4542 65.0327 30.2646 67.3499 30.2646C69.6794 30.2646 71.5677 28.4641 71.5677 26.0103C71.5677 23.5439 69.6794 21.7559 67.3499 21.7559ZM67.3499 28.5788C66.0754 28.5788 64.9784 27.5115 64.9784 26.0003C64.9784 24.4666 66.0779 23.4217 67.3499 23.4217C68.6244 23.4217 69.7213 24.4666 69.7213 26.0003C69.7238 27.5215 68.6244 28.5788 67.3499 28.5788ZM58.1475 21.7559C55.818 21.7559 53.9297 23.5439 53.9297 26.0103C53.9297 28.4542 55.8303 30.2646 58.1475 30.2646C60.4771 30.2646 62.3654 28.4641 62.3654 26.0103C62.3654 23.5439 60.4746 21.7559 58.1475 21.7559ZM58.1475 28.5788C56.873 28.5788 55.7761 27.5115 55.7761 26.0003C55.7761 24.4666 56.8755 23.4217 58.1475 23.4217C59.422 23.4217 60.519 24.4666 60.519 26.0003C60.519 27.5215 59.422 28.5788 58.1475 28.5788ZM47.1974 23.0552V24.8557H51.4695C51.3388 25.8656 51.0085 26.6113 50.5031 27.1225C49.877 27.7559 48.9106 28.4442 47.2072 28.4442C44.5819 28.4442 42.5284 26.2995 42.5284 23.6437C42.5284 20.9878 44.5819 18.8432 47.2072 18.8432C48.6247 18.8432 49.6576 19.4093 50.4242 20.1325L51.6864 18.8557C50.6214 17.8232 49.204 17.0327 47.2171 17.0327C43.6155 17.0327 40.5933 20.0003 40.5933 23.6337C40.5933 27.2771 43.6131 30.2347 47.2171 30.2347C49.1621 30.2347 50.6214 29.5913 51.7751 28.3793C52.951 27.1898 53.3232 25.5115 53.3232 24.1574C53.3232 23.736 53.2912 23.3569 53.2246 23.0352H47.1949C47.1974 23.0327 47.1974 23.0552 47.1974 23.0552ZM91.9865 24.4566C91.634 23.5015 90.569 21.7459 88.3849 21.7459C86.2205 21.7459 84.421 23.4691 84.421 26.0003C84.421 28.3893 86.2008 30.2546 88.5944 30.2546C90.5173 30.2546 91.6364 29.0651 92.0974 28.3669L90.6701 27.3993C90.1968 28.11 89.5386 28.5763 88.6043 28.5763C87.6602 28.5763 86.9995 28.1424 86.5607 27.2871L92.1837 24.9305C92.1837 24.933 91.9865 24.4566 91.9865 24.4566ZM86.2526 25.8781C86.2082 24.2347 87.5147 23.3993 88.449 23.3993C89.1861 23.3993 89.7999 23.7659 90.0094 24.2995L86.2526 25.8781ZM81.6847 30.0003H83.5311V17.5015H81.6847V30.0003ZM78.6525 22.701H78.586C78.1694 22.1998 77.3781 21.7459 76.3674 21.7459C74.2695 21.7459 72.3369 23.6138 72.3369 26.0128C72.3369 28.4018 74.2597 30.2472 76.3674 30.2472C77.3657 30.2472 78.1694 29.7908 78.586 29.2796H78.6525V29.8906C78.6525 31.514 77.7947 32.3893 76.4117 32.3893C75.2802 32.3893 74.5777 31.5664 74.2917 30.8781L72.6869 31.5564C73.1479 32.6786 74.378 34.0676 76.4093 34.0676C78.5737 34.0676 80.4077 32.7783 80.4077 29.6337V22.0003H78.6624V22.701C78.6649 22.701 78.6525 22.701 78.6525 22.701ZM76.5325 28.5788C75.258 28.5788 74.1931 27.5015 74.1931 26.0128C74.1931 24.5115 75.258 23.4242 76.5325 23.4242C77.7947 23.4242 78.7733 24.524 78.7733 26.0128C78.7857 27.5015 77.7971 28.5788 76.5325 28.5788ZM100.632 17.5015H96.2167V30.0003H98.063V25.2671H100.634C102.678 25.2671 104.687 23.7684 104.687 21.3893C104.687 19.0103 102.685 17.5015 100.632 17.5015ZM100.686 23.5215H98.0606V19.2322H100.686C102.069 19.2322 102.85 20.3868 102.85 21.3769C102.85 22.3569 102.059 23.5215 100.686 23.5215ZM112.087 21.7335C110.746 21.7335 109.363 22.3345 108.791 23.6437L110.428 24.332C110.781 23.6437 111.427 23.4093 112.109 23.4093C113.066 23.4093 114.032 23.9878 114.054 25.0202V25.1524C113.724 24.9629 112.999 24.6736 112.132 24.6736C110.364 24.6736 108.572 25.6512 108.572 27.4841C108.572 29.1624 110.021 30.2397 111.636 30.2397C112.876 30.2397 113.559 29.6736 113.985 29.0177H114.052V29.9853H115.832V25.1973C115.832 22.9679 114.195 21.7335 112.087 21.7335ZM111.855 28.5788C111.252 28.5788 110.406 28.2796 110.406 27.5115C110.406 26.5439 111.461 26.1773 112.361 26.1773C113.174 26.1773 113.559 26.3544 114.042 26.5988C113.909 27.721 112.972 28.5689 111.855 28.5788ZM122.325 22.0003L120.205 27.4217H120.138L117.942 22.0003H115.955L119.251 29.5788L117.372 33.7908H119.295L124.366 22.0003H122.325ZM105.705 30.0003H107.551V17.5015H105.705V30.0003Z" fill="white"/>
<path fill-rule="evenodd" clip-rule="evenodd" d="M10.3142 7.53364C10.0282 7.84536 9.86304 8.32167 9.86304 8.94511V31.0573C9.86304 31.6808 10.0282 32.1571 10.324 32.4563L10.4004 32.5237L22.6472 20.1346V19.8578L10.3906 7.46631L10.3142 7.53364Z" fill="url(#paint0_linear)"/>
<path fill-rule="evenodd" clip-rule="evenodd" d="M26.7222 24.2768L22.6375 20.1446V19.8553L26.7222 15.7231L26.8109 15.778L31.6426 18.5561C33.0255 19.3441 33.0255 20.6458 31.6426 21.4438L26.8109 24.2219L26.7222 24.2768Z" fill="url(#paint1_linear)"/>
<path fill-rule="evenodd" clip-rule="evenodd" d="M26.8107 24.2219L22.6372 20L10.314 32.4663C10.7651 32.9551 11.5219 33.01 12.3674 32.5337L26.8107 24.2219Z" fill="url(#paint2_linear)"/>
<path fill-rule="evenodd" clip-rule="evenodd" d="M26.8107 15.7779L12.3674 7.47869C11.5219 6.98992 10.7626 7.05725 10.314 7.54603L22.6372 19.9999L26.8107 15.7779Z" fill="url(#paint3_linear)"/>
<path opacity="0.2" fill-rule="evenodd" clip-rule="evenodd" d="M26.7221 24.1323L12.3774 32.3767C11.5763 32.8431 10.8614 32.8106 10.4004 32.3867L10.324 32.464L10.4004 32.5313C10.8614 32.9528 11.5763 32.9877 12.3774 32.5214L26.8207 24.2221L26.7221 24.1323Z" fill="black"/>
<path opacity="0.12" fill-rule="evenodd" clip-rule="evenodd" d="M31.6427 21.2993L26.71 24.1322L26.7987 24.2219L31.6304 21.4439C32.3231 21.0449 32.6633 20.5212 32.6633 20C32.6214 20.4788 32.2688 20.9327 31.6427 21.2993Z" fill="black"/>
<path opacity="0.25" fill-rule="evenodd" clip-rule="evenodd" d="M12.3676 7.62329L31.6425 18.7006C32.2687 19.0572 32.6212 19.5235 32.6754 19.9999C32.6754 19.4787 32.3352 18.955 31.6425 18.556L12.3676 7.47866C10.9847 6.67816 9.86304 7.34649 9.86304 8.94499V9.08963C9.86304 7.48863 10.9847 6.83277 12.3676 7.62329Z" fill="white"/>
<defs>
<linearGradient id="paint0_linear" x1="21.5487" y1="8.70654" x2="1.90173" y2="13.8814" gradientUnits="userSpaceOnUse">
<stop stop-color="#00A0FF"/>
<stop offset="0.00657" stop-color="#00A1FF"/>
<stop offset="0.2601" stop-color="#00BEFF"/>
<stop offset="0.5122" stop-color="#00D2FF"/>
<stop offset="0.7604" stop-color="#00DFFF"/>
<stop offset="1" stop-color="#00E3FF"/>
</linearGradient>
<linearGradient id="paint1_linear" x1="33.4461" y1="20" x2="9.52698" y2="20" gradientUnits="userSpaceOnUse">
<stop stop-color="#FFE000"/>
<stop offset="0.4087" stop-color="#FFBD00"/>
<stop offset="0.7754" stop-color="#FFA500"/>
<stop offset="1" stop-color="#FF9C00"/>
</linearGradient>
<linearGradient id="paint2_linear" x1="24.5413" y1="22.2973" x2="8.52239" y2="48.949" gradientUnits="userSpaceOnUse">
<stop stop-color="#FF3A44"/>
<stop offset="1" stop-color="#C31162"/>
</linearGradient>
<linearGradient id="paint3_linear" x1="7.21084" y1="0.178688" x2="14.3576" y2="12.0818" gradientUnits="userSpaceOnUse">
<stop stop-color="#32A071"/>
<stop offset="0.0685" stop-color="#2DA771"/>
<stop offset="0.4762" stop-color="#15CF74"/>
<stop offset="0.8009" stop-color="#06E775"/>
<stop offset="1" stop-color="#00F076"/>
</linearGradient>
</defs>
</svg>
